<?xml version="1.0" encoding="iso-8859-1"?>
<!-- Generator: Adobe Illustrator 19.0.0, SVG Export Plug-In . SVG Version: 6.00 Build 0)  -->
<svg version="1.1" id="Capa_1" xmlns="http://www.w3.org/2000/svg" xmlns:xlink="http://www.w3.org/1999/xlink" x="0px" y="0px"
	 viewBox="0 0 512 512" style="enable-background:new 0 0 512 512;" xml:space="preserve">
<g>
	<g>
		<g>
			<rect x="157.448" y="144" width="32" height="32"/>
			<rect x="221.448" y="144" width="32" height="32"/>
			<path d="M277.448,64l-48-64h-184v144H2.552L56.52,467.744c4.193,25.573,26.326,44.323,52.24,44.256h352.688
				c26.51,0,48-21.49,48-48V64H277.448z M477.448,464c0,8.837-7.163,16-16,16c-10.388-0.041-19.184-7.674-20.688-17.952L395.32,144
				H285.448v32h82.128l41.6,290.576c0.719,4.637,2.07,9.154,4.016,13.424H108.76c-10.257,0.025-19.015-7.398-20.672-17.52
				L40.344,176h85.104v-32h-48V32h136l48,64h216V464z"/>
		</g>
	</g>
</g>
<g>
</g>
<g>
</g>
<g>
</g>
<g>
</g>
<g>
</g>
<g>
</g>
<g>
</g>
<g>
</g>
<g>
</g>
<g>
</g>
<g>
</g>
<g>
</g>
<g>
</g>
<g>
</g>
<g>
</g>
</svg>
