<?xml version="1.0" encoding="iso-8859-1"?>
<!-- Generator: Adobe Illustrator 19.0.0, SVG Export Plug-In . SVG Version: 6.00 Build 0)  -->
<svg version="1.1" id="Capa_1" xmlns="http://www.w3.org/2000/svg" xmlns:xlink="http://www.w3.org/1999/xlink" x="0px" y="0px"
	 viewBox="0 0 512 512" style="enable-background:new 0 0 512 512;" xml:space="preserve">
<g>
	<g>
		<g>
			<path d="M256.878,192c35.346,0,64-28.654,64-64c0-35.346-28.654-64-64-64c-35.346,0-64,28.654-64,64
				C192.878,163.346,221.532,192,256.878,192z M256.878,96c17.673,0,32,14.327,32,32s-14.327,32-32,32c-17.673,0-32-14.327-32-32
				S239.205,96,256.878,96z"/>
			<rect x="64.878" y="64" width="96" height="32"/>
			<rect x="64.878" y="128" width="32" height="32"/>
			<rect x="128.878" y="128" width="32" height="32"/>
			<rect x="359.146" y="344.02" transform="matrix(0.3208 -0.9472 0.9472 0.3208 -26.6938 682.8157)" width="207.183" height="32"/>
			<path d="M384.878,33.248V0h-384v512h384v-71.76L508.542,75.2L384.878,33.248z M32.878,480v-17.488L138.174,280l115.504,200
				H32.878z M352.878,480h-62.272l-51.12-88.704l34.688-56.672l78.704,128.304V480z M352.878,401.728l-78.736-128.352l-52.944,86.48
				L138.142,216L32.878,398.48V32h320V401.728z M384.878,67.024l83.072,28.128L384.878,340.48V67.024z"/>
		</g>
	</g>
</g>
<g>
</g>
<g>
</g>
<g>
</g>
<g>
</g>
<g>
</g>
<g>
</g>
<g>
</g>
<g>
</g>
<g>
</g>
<g>
</g>
<g>
</g>
<g>
</g>
<g>
</g>
<g>
</g>
<g>
</g>
</svg>
