<?xml version="1.0" encoding="iso-8859-1"?>
<!-- Generator: Adobe Illustrator 19.0.0, SVG Export Plug-In . SVG Version: 6.00 Build 0)  -->
<svg version="1.1" id="Capa_1" xmlns="http://www.w3.org/2000/svg" xmlns:xlink="http://www.w3.org/1999/xlink" x="0px" y="0px"
	 viewBox="0 0 512 512" style="enable-background:new 0 0 512 512;" xml:space="preserve">
<g>
	<g>
		<g>
			<path d="M336,320c-26.51,0-48,21.49-48,48c0,26.51,21.49,48,48,48c26.51,0,48-21.49,48-48V188.48l-192,38.4V352h-16
				c-26.51,0-48,21.49-48,48c0,26.51,21.49,48,48,48c26.51,0,48-21.49,48-48V253.104l128-25.6V320H336z M352,368
				c0,8.837-7.163,16-16,16s-16-7.163-16-16s7.163-16,16-16h16V368z M192,400c0,8.837-7.163,16-16,16s-16-7.163-16-16
				s7.163-16,16-16h16V400z"/>
			<rect x="304" y="128" width="32" height="32"/>
			<rect x="240" y="128" width="32" height="32"/>
			<path d="M128,0C83.839,0.053,48.053,35.839,48,80v352c0.053,44.161,35.839,79.947,80,80h336V128h-96v32h64v320H128
				c-26.51,0-48-21.49-48-48V143.584c13.766,10.589,30.633,16.357,48,16.416h80v-32h-80c-26.51,0-48-21.49-48-48s21.49-48,48-48h336
				V0H128z"/>
			<rect x="128" y="64" width="336" height="32"/>
		</g>
	</g>
</g>
<g>
</g>
<g>
</g>
<g>
</g>
<g>
</g>
<g>
</g>
<g>
</g>
<g>
</g>
<g>
</g>
<g>
</g>
<g>
</g>
<g>
</g>
<g>
</g>
<g>
</g>
<g>
</g>
<g>
</g>
</svg>
