<?xml version="1.0" encoding="iso-8859-1"?>
<!-- Generator: Adobe Illustrator 19.0.0, SVG Export Plug-In . SVG Version: 6.00 Build 0)  -->
<svg version="1.1" id="Capa_1" xmlns="http://www.w3.org/2000/svg" xmlns:xlink="http://www.w3.org/1999/xlink" x="0px" y="0px"
	 viewBox="0 0 512 512" style="enable-background:new 0 0 512 512;" xml:space="preserve">
<g>
	<g>
		<g>
			<rect x="176" y="128" width="32" height="32"/>
			<rect x="240" y="128" width="32" height="32"/>
			<path d="M232,64L184,0H0v464c0,26.51,21.49,48,48,48h416c26.51,0,48-21.49,48-48V64H232z M480,464c0,8.837-7.163,16-16,16
				s-16-7.163-16-16V128H304v32h112v304c0.053,5.463,1.049,10.876,2.944,16H48c-8.837,0-16-7.163-16-16V160h112v-32H32V32h136l48,64
				h264V464z"/>
			<path d="M96,320c0,70.692,57.308,128,128,128s128-57.308,128-128s-57.308-128-128-128C153.34,192.079,96.079,249.34,96,320z
				 M318.752,305.28c4.073,24.695-1.901,49.993-16.592,70.256l-48.544-48.544L318.752,305.28z M240,225.44
				c29.314,4.981,54.677,23.238,68.704,49.456L240,297.792V225.44z M168.23,241.912c11.838-8.433,25.437-14.065,39.77-16.472
				v101.184l71.536,71.536c-43.147,30.736-103.041,20.676-133.777-22.471C115.022,332.542,125.083,272.648,168.23,241.912z"/>
		</g>
	</g>
</g>
<g>
</g>
<g>
</g>
<g>
</g>
<g>
</g>
<g>
</g>
<g>
</g>
<g>
</g>
<g>
</g>
<g>
</g>
<g>
</g>
<g>
</g>
<g>
</g>
<g>
</g>
<g>
</g>
<g>
</g>
</svg>
