<?xml version="1.0" encoding="iso-8859-1"?>
<!-- Generator: Adobe Illustrator 19.0.0, SVG Export Plug-In . SVG Version: 6.00 Build 0)  -->
<svg version="1.1" id="Capa_1" xmlns="http://www.w3.org/2000/svg" xmlns:xlink="http://www.w3.org/1999/xlink" x="0px" y="0px"
	 viewBox="0 0 512 512" style="enable-background:new 0 0 512 512;" xml:space="preserve">
<g>
	<g>
		<g>
			<polygon points="192,0 192,32 480,32 480,480 32,480 32,32 96,32 96,0 0,0 0,512 512,512 512,0 			"/>
			<rect x="128" width="32" height="32"/>
			<path d="M256,240c48.601,0,88-39.399,88-88s-39.399-88-88-88s-88,39.399-88,88C168.053,200.579,207.421,239.947,256,240z M256,96
				c30.928,0,56,25.072,56,56c0,30.928-25.072,56-56,56c-30.928,0-56-25.072-56-56C200,121.072,225.072,96,256,96z"/>
			<path d="M96,448h32v-96c0-26.51,21.49-48,48-48h160c26.51,0,48,21.49,48,48v96h32v-96c-0.053-44.161-35.839-79.947-80-80H176
				c-44.161,0.053-79.947,35.839-80,80V448z"/>
			<rect x="160" y="384" width="32" height="64"/>
			<rect x="320" y="384" width="32" height="64"/>
		</g>
	</g>
</g>
<g>
</g>
<g>
</g>
<g>
</g>
<g>
</g>
<g>
</g>
<g>
</g>
<g>
</g>
<g>
</g>
<g>
</g>
<g>
</g>
<g>
</g>
<g>
</g>
<g>
</g>
<g>
</g>
<g>
</g>
</svg>
